<?xml version="1.0" encoding="UTF-8"?><svg id="Capa_2" xmlns="http://www.w3.org/2000/svg" viewBox="0 0 246.5 61.47"><g id="Layer_1"><path d="M215.35.77h-47.19v19.94c-2.16-7.29-6.68-12.72-13.65-16.08-6-2.88-12.61-3.87-26.53-3.87h-39.51v20.55C83.85,7.66,68.59,0,44.98,0,16.39,0,0,11.2,0,30.73s16.39,30.73,44.98,30.73c23.61,0,38.87-7.66,43.48-21.33v20.55h39.92c13.73,0,19.22-.54,24.2-2.25,8.03-2.85,13.21-8.17,15.58-15.94v18.18h29.41v-25.06h17.79c20.09,0,31.15-6.22,31.15-17.18S235.85.77,215.35.77Z"/></g></svg>