<?xml version="1.0" encoding="UTF-8"?><svg id="Capa_2" xmlns="http://www.w3.org/2000/svg" viewBox="0 0 275.57 90.53"><g id="Layer_1"><path d="M0,0v90.53h275.57V0H0ZM229.89,50.17h-17.79v25.06h-29.41v-18.18c-2.37,7.76-7.55,13.08-15.58,15.94-4.98,1.7-10.47,2.25-24.2,2.25h-39.92v-20.55c-4.61,13.67-19.87,21.33-43.48,21.33-28.59,0-44.98-11.2-44.98-30.73S30.93,14.53,59.51,14.53c23.61,0,38.87,7.66,43.48,21.33V15.31h39.51c13.93,0,20.53.99,26.53,3.87,6.97,3.36,11.49,8.79,13.65,16.08V15.31h47.19c20.5,0,31.15,6.72,31.15,17.68s-11.06,17.18-31.15,17.18Z"/></g></svg>