<?xml version="1.0" encoding="UTF-8"?><svg id="Capa_2" xmlns="http://www.w3.org/2000/svg" viewBox="0 0 1457.57 78.52"><g id="Layer_1"><path d="M1386.21,54.89l9.77-20.81,10.01,20.81h-19.78ZM1420.74.99h-34.66l-35.93,76.54h25.43l4.68-9.97h31.83l4.8,9.97h40.68L1420.74.99Z"/><polygon points="1283.11 77.53 1320.67 77.53 1320.67 .99 1265.21 .99 1249.45 35.17 1233.01 .99 1175.55 .99 1175.55 77.53 1201.77 77.53 1201.77 20.6 1229.03 77.53 1256.84 77.53 1283.11 20.55 1283.11 77.53"/><path d="M959.06,54.89l9.77-20.81,10.01,20.81h-19.78ZM993.6.99h-34.66l-35.93,76.54h25.43l4.68-9.97h31.83l4.8,9.97h40.68L993.6.99Z"/><path d="M868.87.99h-60.29v76.54h37.57v-32.01h22.72c25.66,0,39.79-7.95,39.79-21.95s-13.6-22.59-39.79-22.59ZM863.6,32.87h-17.46v-14.11h17.46c8.29,0,12.59,2.72,12.59,7.15s-4.47,6.95-12.59,6.95Z"/><polygon points="1058.31 77.53 1144.63 77.53 1144.63 59.54 1095.87 59.54 1095.87 .99 1058.31 .99 1058.31 77.53"/><path d="M435.92,54.89l9.77-20.81,10.01,20.81h-19.78ZM470.45.99h-34.66l-35.93,76.54h25.43l4.68-9.97h31.83l4.8,9.97h40.68L470.45.99Z"/><polygon points="149.86 77.53 236.18 77.53 236.18 59.54 187.43 59.54 187.43 .99 149.86 .99 149.86 77.53"/><path d="M335.38,24.73c-.45-1.96-1.81-4.23-4.29-5.97-2.49-1.75-6.23-3-11.65-3-14.71,0-22.85,8.97-22.85,22.36,0,14.32,7.24,24.64,24.31,24.64,7.47,0,12.9-1.03,15.95-2.58v-11.34h-19.9v-15.67h54.29v39.26c-16.06,3.4-37.33,5.97-55.31,5.97-41.06,0-53.72-16.28-53.72-38.23C262.2,12.26,283.8.1,319.77.1c29.63,0,50.89,5.87,51.46,24.63h-35.86Z"/><polygon points="674.94 77.53 768.95 77.53 768.95 59.58 712.5 59.58 712.5 46.04 764.93 46.04 764.93 32.59 712.5 32.59 712.5 18.89 768.95 18.89 768.95 .99 674.94 .99 674.94 77.53"/><path d="M536.79.99h50.47c17.79,0,26.23,1.26,33.89,4.94,12.86,6.2,19.35,17.78,19.35,34.31,0,17.78-7.28,29.26-21.82,34.42-6.37,2.18-13.38,2.87-30.91,2.87h-50.99V.99ZM578.96,58.02c11.29,0,17.79-1.26,20.91-4.02,3.37-2.98,5.19-8.15,5.19-14.69,0-9.87-4.28-16.3-12.34-18.01-2.86-.68-3.89-.8-14.15-.8h-4.21v37.52h4.6Z"/><path d="M57.46,0C20.94,0,0,14.31,0,39.26s20.94,39.26,57.46,39.26,57.46-14.31,57.46-39.26S93.97,0,57.46,0ZM57.46,60.81c-13.33,0-20.09-7.25-20.09-21.55s6.69-21.55,19.88-21.55,20.31,7.05,20.31,21.55-6.76,21.55-20.09,21.55Z"/></g></svg>